<svg width="28" height="28" viewBox="0 0 28 28" fill="none" xmlns="http://www.w3.org/2000/svg">
<path d="M13.7402 19C18.7108 19 22.7402 14.9706 22.7402 10C22.7402 5.02944 18.7108 1 13.7402 1C8.76967 1 4.74023 5.02944 4.74023 10C4.74023 14.9706 8.76967 19 13.7402 19Z" stroke="#7C3AED" stroke-linecap="round" stroke-linejoin="round"/>
<path d="M13.7402 14C15.9494 14 17.7402 12.2091 17.7402 10C17.7402 7.79086 15.9494 6 13.7402 6C11.5311 6 9.74023 7.79086 9.74023 10C9.74023 12.2091 11.5311 14 13.7402 14Z" stroke="#7C3AED" stroke-linecap="round" stroke-linejoin="round"/>
<path d="M11.9998 18.84L10.2398 26.24C10.205 26.3806 10.1406 26.5122 10.0509 26.626C9.96125 26.7398 9.84837 26.8332 9.71979 26.9C9.58409 26.9589 9.43773 26.9893 9.28979 26.9893C9.14185 26.9893 8.9955 26.9589 8.85979 26.9L2.21979 24C2.08051 23.9342 1.95796 23.8376 1.86133 23.7176C1.7647 23.5976 1.6965 23.4573 1.66186 23.3072C1.62722 23.1571 1.62703 23.0011 1.66131 22.8509C1.69559 22.7007 1.76345 22.5602 1.85979 22.44L6.99979 16" stroke="#7C3AED" stroke-linecap="round" stroke-linejoin="round"/>
<path d="M16 18.74L17.8 26.24C17.8358 26.383 17.9028 26.5163 17.9961 26.6304C18.0895 26.7445 18.2069 26.8366 18.34 26.9C18.472 26.9596 18.6152 26.9905 18.76 26.9905C18.9048 26.9905 19.048 26.9596 19.18 26.9L25.78 24C25.9214 23.9349 26.0456 23.8378 26.1428 23.7163C26.24 23.5947 26.3076 23.4522 26.34 23.3C26.3779 23.1511 26.3795 22.9953 26.3447 22.8456C26.3099 22.696 26.2397 22.5569 26.14 22.44L20.78 15.62" stroke="#7C3AED" stroke-linecap="round" stroke-linejoin="round"/>
</svg>
