<svg width="41" height="41" viewBox="0 0 41 41" fill="none" xmlns="http://www.w3.org/2000/svg">
<g clip-path="url(#clip0_260_961)">
<path d="M20.5 0C9.17924 0 0 9.17924 0 20.5C0 31.8208 9.17924 41 20.5 41C31.8208 41 41 31.8208 41 20.5C41 9.17924 31.8208 0 20.5 0ZM20.5 37.5223C11.1011 37.5223 3.47768 29.8989 3.47768 20.5C3.47768 11.1011 11.1011 3.47768 20.5 3.47768C29.8989 3.47768 37.5223 11.1011 37.5223 20.5C37.5223 29.8989 29.8989 37.5223 20.5 37.5223Z" fill="#2563EB"/>
<path d="M28.4944 26.2888L21.9692 21.571V10.2457C21.9692 10.0444 21.8045 9.87964 21.6031 9.87964H19.4021C19.2008 9.87964 19.0361 10.0444 19.0361 10.2457V22.8477C19.0361 22.9667 19.091 23.0765 19.1871 23.1452L26.7556 28.6637C26.9203 28.7827 27.1491 28.746 27.2681 28.5859L28.5768 26.8013C28.6958 26.632 28.6592 26.4032 28.4944 26.2888Z" fill="#2563EB"/>
</g>
<defs>
<clipPath id="clip0_260_961">
<rect width="41" height="41" fill="white"/>
</clipPath>
</defs>
</svg>
