<svg width="46" height="46" viewBox="0 0 46 46" fill="none" xmlns="http://www.w3.org/2000/svg">
<g filter="url(#filter0_d_685_2614)">
<circle cx="22" cy="22" r="20" fill="#4B5563" fill-opacity="0.85" shape-rendering="crispEdges"/>
<circle cx="22" cy="22" r="20.5" stroke="white" shape-rendering="crispEdges"/>
</g>
<path d="M21.2161 30.2881C20.1761 30.2881 19.2721 30.1521 18.5041 29.8801C17.7361 29.5921 17.0801 29.2481 16.5361 28.8481L17.5201 27.0481C17.9681 27.3841 18.4881 27.6801 19.0801 27.9361C19.6721 28.1921 20.3921 28.3201 21.2401 28.3201C22.2961 28.3201 23.1281 28.0401 23.7361 27.4801C24.3601 26.9201 24.6721 26.2241 24.6721 25.3921C24.6721 24.8001 24.5121 24.2641 24.1921 23.7841C23.8721 23.2881 23.3761 22.8881 22.7041 22.5841C22.0481 22.2801 21.1921 22.1281 20.1361 22.1281H18.7921V20.3761H20.0401C20.9841 20.3761 21.7601 20.2321 22.3681 19.9441C22.9921 19.6561 23.4561 19.2801 23.7601 18.8161C24.0641 18.3521 24.2161 17.8641 24.2161 17.3521C24.2161 16.6001 23.9281 15.9921 23.3521 15.5281C22.7921 15.0641 22.0961 14.8321 21.2641 14.8321C20.5121 14.8321 19.8401 14.9601 19.2481 15.2161C18.6721 15.4561 18.2001 15.7281 17.8321 16.0321L16.9441 14.3281C17.4241 14.0081 18.0401 13.6961 18.7921 13.3921C19.5441 13.0721 20.4241 12.9121 21.4321 12.9121C22.4881 12.9121 23.3841 13.1041 24.1201 13.4881C24.8561 13.8721 25.4161 14.3841 25.8001 15.0241C26.2001 15.6481 26.4001 16.3281 26.4001 17.0641C26.4001 18.0081 26.1601 18.8001 25.6801 19.4401C25.2161 20.0801 24.5521 20.6081 23.6881 21.0241C24.6961 21.4081 25.4801 21.9761 26.0401 22.7281C26.6161 23.4641 26.9041 24.3281 26.9041 25.3201C26.9041 26.1521 26.6961 26.9521 26.2801 27.7201C25.8801 28.4721 25.2561 29.0881 24.4081 29.5681C23.5761 30.0481 22.5121 30.2881 21.2161 30.2881Z" fill="white"/>
<defs>
<filter id="filter0_d_685_2614" x="0" y="0" width="46" height="46" filterUnits="userSpaceOnUse" color-interpolation-filters="sRGB">
<feFlood flood-opacity="0" result="BackgroundImageFix"/>
<feColorMatrix in="SourceAlpha" type="matrix" values="0 0 0 0 0 0 0 0 0 0 0 0 0 0 0 0 0 0 127 0" result="hardAlpha"/>
<feOffset dx="1" dy="1"/>
<feGaussianBlur stdDeviation="1"/>
<feComposite in2="hardAlpha" operator="out"/>
<feColorMatrix type="matrix" values="0 0 0 0 0 0 0 0 0 0 0 0 0 0 0 0 0 0 0.25 0"/>
<feBlend mode="normal" in2="BackgroundImageFix" result="effect1_dropShadow_685_2614"/>
<feBlend mode="normal" in="SourceGraphic" in2="effect1_dropShadow_685_2614" result="shape"/>
</filter>
</defs>
</svg>
