<svg width="46" height="46" viewBox="0 0 46 46" fill="none" xmlns="http://www.w3.org/2000/svg">
<g filter="url(#filter0_d_685_2610)">
<circle cx="22" cy="22" r="20" fill="#4B5563" fill-opacity="0.85" shape-rendering="crispEdges"/>
<circle cx="22" cy="22" r="20.5" stroke="white" shape-rendering="crispEdges"/>
</g>
<path d="M17.112 30.0001C17.064 29.7121 17.04 29.4161 17.04 29.1121C17.04 28.0721 17.216 27.1441 17.568 26.3281C17.936 25.4961 18.408 24.7441 18.984 24.0721C19.56 23.3841 20.168 22.7521 20.808 22.1761C21.464 21.5841 22.072 21.0241 22.632 20.4961C23.208 19.9521 23.68 19.4081 24.048 18.8641C24.416 18.3201 24.6 17.7521 24.6 17.1601C24.6 16.4881 24.352 15.9361 23.856 15.5041C23.36 15.0561 22.72 14.8321 21.936 14.8321C21.264 14.8321 20.648 14.9681 20.088 15.2401C19.544 15.4961 19.032 15.8481 18.552 16.2961L17.352 14.8321C17.992 14.2561 18.696 13.7921 19.464 13.4401C20.248 13.0881 21.152 12.9121 22.176 12.9121C23.12 12.9121 23.944 13.0961 24.648 13.4641C25.352 13.8161 25.896 14.3041 26.28 14.9281C26.68 15.5521 26.88 16.2481 26.88 17.0161C26.88 17.7841 26.712 18.4961 26.376 19.1521C26.04 19.8081 25.608 20.4241 25.08 21.0001C24.552 21.5761 23.984 22.1361 23.376 22.6801C22.768 23.2081 22.184 23.7521 21.624 24.3121C21.064 24.8721 20.584 25.4561 20.184 26.0641C19.8 26.6721 19.56 27.3281 19.464 28.0321H26.856V30.0001H17.112Z" fill="white"/>
<defs>
<filter id="filter0_d_685_2610" x="0" y="0" width="46" height="46" filterUnits="userSpaceOnUse" color-interpolation-filters="sRGB">
<feFlood flood-opacity="0" result="BackgroundImageFix"/>
<feColorMatrix in="SourceAlpha" type="matrix" values="0 0 0 0 0 0 0 0 0 0 0 0 0 0 0 0 0 0 127 0" result="hardAlpha"/>
<feOffset dx="1" dy="1"/>
<feGaussianBlur stdDeviation="1"/>
<feComposite in2="hardAlpha" operator="out"/>
<feColorMatrix type="matrix" values="0 0 0 0 0 0 0 0 0 0 0 0 0 0 0 0 0 0 0.25 0"/>
<feBlend mode="normal" in2="BackgroundImageFix" result="effect1_dropShadow_685_2610"/>
<feBlend mode="normal" in="SourceGraphic" in2="effect1_dropShadow_685_2610" result="shape"/>
</filter>
</defs>
</svg>
