<svg width="41" height="41" viewBox="0 0 41 41" fill="none" xmlns="http://www.w3.org/2000/svg">
<path d="M38.4383 31.2578H2.56334C2.362 31.2578 2.19727 31.4225 2.19727 31.6238V34.1863C2.19727 34.3877 2.362 34.5524 2.56334 34.5524H38.4383C38.6397 34.5524 38.8044 34.3877 38.8044 34.1863V31.6238C38.8044 31.4225 38.6397 31.2578 38.4383 31.2578ZM4.65452 25.5287L6.47115 27.3362C6.613 27.4781 6.84637 27.4781 6.98823 27.3362L17.7278 16.6332L22.1939 21.0855C22.4691 21.3582 22.8407 21.5111 23.2281 21.5111C23.6154 21.5111 23.9871 21.3582 24.2622 21.0855L36.3517 9.0418C36.4936 8.89994 36.4936 8.66657 36.3517 8.52472L34.5351 6.71267C34.4663 6.64454 34.3734 6.60632 34.2766 6.60632C34.1797 6.60632 34.0868 6.64454 34.018 6.71267L23.2326 17.466L18.762 13.0137C18.4868 12.7411 18.1152 12.5881 17.7278 12.5881C17.3405 12.5881 16.9688 12.7411 16.6937 13.0137L4.65452 25.0117C4.62029 25.0455 4.59312 25.0857 4.57457 25.1301C4.55602 25.1745 4.54647 25.2221 4.54647 25.2702C4.54647 25.3183 4.55602 25.3659 4.57457 25.4103C4.59312 25.4547 4.62029 25.4949 4.65452 25.5287Z" fill="#059669" fill-opacity="0.85"/>
</svg>
